<svg id="Layer_1" data-name="Layer 1" xmlns="http://www.w3.org/2000/svg" xmlns:xlink="http://www.w3.org/1999/xlink" viewBox="0 0 58.21 56.9"><defs><style>.cls-1{fill:url(#linear-gradient);}.cls-2{fill:url(#linear-gradient-2);}.cls-3{fill:url(#linear-gradient-3);}.cls-4{fill:url(#linear-gradient-4);}.cls-5{fill:url(#linear-gradient-5);}</style><linearGradient id="linear-gradient" x1="3.03" y1="5.9" x2="31.69" y2="5.9" gradientUnits="userSpaceOnUse"><stop offset="0" stop-color="#4373f9"/><stop offset="0.99" stop-color="#675dc9"/></linearGradient><linearGradient id="linear-gradient-2" x1="3.03" y1="28.45" x2="55.19" y2="28.45" xlink:href="#linear-gradient"/><linearGradient id="linear-gradient-3" x1="3.03" y1="11.52" x2="43.72" y2="11.52" xlink:href="#linear-gradient"/><linearGradient id="linear-gradient-4" x1="3.03" y1="51" x2="31.69" y2="51" xlink:href="#linear-gradient"/><linearGradient id="linear-gradient-5" x1="3.03" y1="45.38" x2="43.72" y2="45.38" xlink:href="#linear-gradient"/></defs><title>krowdspace-icons</title><path class="cls-1" d="M3,5.9A2.94,2.94,0,0,1,6,3H28.76a2.94,2.94,0,0,1,0,5.88H6A2.94,2.94,0,0,1,3,5.9Z"/><path class="cls-2" d="M48,34.23C52.5,39.12,55.19,45.39,55.19,51a2.94,2.94,0,1,1-5.87,0c0-4.11-2.17-9-5.65-12.79a20.23,20.23,0,0,0-14.91-6.76H6A2.94,2.94,0,0,1,3,28.52v-.13A2.94,2.94,0,0,1,6,25.45H28.76a20.23,20.23,0,0,0,14.91-6.76C47.15,14.92,49.32,10,49.32,5.9a2.94,2.94,0,1,1,5.87,0c0,5.62-2.69,11.89-7.21,16.78a27.19,27.19,0,0,1-7.51,5.77A27.42,27.42,0,0,1,48,34.23Z"/><path class="cls-3" d="M3,17.14A2.94,2.94,0,0,1,6,14.21H28.72c4.4-.11,9.13-3.47,9.13-8.31a2.94,2.94,0,1,1,5.87,0,13.91,13.91,0,0,1-4.22,9.73,15.57,15.57,0,0,1-10.68,4.45H6A2.94,2.94,0,0,1,3,17.14Z"/><path class="cls-4" d="M31.69,51a2.94,2.94,0,0,1-2.93,2.94H6a2.94,2.94,0,1,1,0-5.87H28.76A2.93,2.93,0,0,1,31.69,51Z"/><path class="cls-5" d="M43.72,51a2.94,2.94,0,1,1-5.87,0c0-3.93-3.73-8.3-9.09-8.3H6a2.94,2.94,0,0,1,0-5.88H28.76a15.19,15.19,0,0,1,10.59,4.3A14,14,0,0,1,43.72,51Z"/></svg>